<svg role="img" viewBox="0 0 24 24" xmlns="http://www.w3.org/2000/svg" id="Camunda--Streamline-Simple-Icons" height="24" width="24">
  <desc>
    Camunda Streamline Icon: https://streamlinehq.com
  </desc>
  <title>Camunda</title>
  <path d="M3.327 0A3.327 3.327 0 0 0 0 3.326v17.348A3.327 3.327 0 0 0 3.327 24h17.347A3.326 3.326 0 0 0 24 20.674V3.326A3.326 3.326 0 0 0 20.674 0H3.327Zm8.687 3.307c1.875 0 2.84 1.105 2.84 3.049v1.175H13.05V6.23c0 -0.867 -0.392 -1.203 -0.994 -1.203 -0.615 -0.014 -0.993 0.322 -0.993 1.189v6.56c0 0.867 0.392 1.175 0.993 1.175 0.616 0 0.994 -0.308 0.994 -1.175v-1.734h1.804v1.608c-0.014 1.945 -0.979 3.049 -2.854 3.049 -1.874 0 -2.839 -1.119 -2.839 -3.035V6.356c0.014 -1.944 0.979 -3.049 2.853 -3.049ZM9.161 17.476h5.693v3.217H9.161v-3.217Z" fill="#000000" stroke-width="1"></path>
</svg>